<?xml version="1.0" standalone="no"?>
<!DOCTYPE svg PUBLIC "-//W3C//DTD SVG 20010904//EN"
 "http://www.w3.org/TR/2001/REC-SVG-20010904/DTD/svg10.dtd">
<svg version="1.0" xmlns="http://www.w3.org/2000/svg"
 width="16.000000pt" height="16.000000pt" viewBox="0 0 16.000000 16.000000"
 preserveAspectRatio="xMidYMid meet">
<metadata>
Created by potrace 1.11, written by Peter Selinger 2001-2013
</metadata>
<g transform="translate(0.000000,16.000000) scale(0.006154,-0.006154)"
fill="#000000" stroke="none">
<path d="M0 1300 l0 -1300 1300 0 1300 0 0 1300 0 1300 -1300 0 -1300 0 0
-1300z m1993 521 c142 -50 236 -165 262 -318 l7 -43 -130 0 c-138 0 -142 1
-142 52 0 36 -32 87 -68 110 -28 17 -52 22 -108 23 -66 0 -75 -3 -111 -31 -60
-49 -75 -101 -81 -282 -9 -294 36 -387 188 -387 109 1 164 42 179 135 l6 35
134 3 133 3 -7 -43 c-20 -119 -94 -227 -193 -281 -112 -61 -313 -75 -429 -29
-119 46 -212 148 -254 281 -30 91 -38 314 -15 420 40 191 151 320 315 367 68
20 241 12 314 -15z m-980 -21 c136 -47 203 -138 201 -275 -1 -96 -43 -173
-118 -213 -18 -9 -16 -12 21 -31 88 -44 130 -131 120 -247 -7 -92 -47 -169
-111 -211 -91 -62 -121 -66 -438 -71 l-288 -3 0 541 0 542 273 -4 c255 -4 276
-5 340 -28z"/>
<path d="M660 1505 l0 -125 81 0 c159 0 209 30 209 125 0 95 -50 125 -209 125
l-81 0 0 -125z"/>
<path d="M660 1080 l0 -132 119 3 c138 5 166 17 191 87 13 37 13 47 0 84 -25
70 -53 82 -191 86 l-119 4 0 -132z"/>
</g>
</svg>
